<svg xmlns="http://www.w3.org/2000/svg" width="20" height="20" viewBox="0 0 32 32" fill="none">
<path d="M26.9999 15.0001H4.99988C4.73466 15.0001 4.48031 15.1054 4.29277 15.293C4.10523 15.4805 3.99988 15.7348 3.99988 16.0001C3.99988 16.2653 4.10523 16.5196 4.29277 16.7072C4.48031 16.8947 4.73466 17.0001 4.99988 17.0001H26.9999C27.2651 17.0001 27.5194 16.8947 27.707 16.7072C27.8945 16.5196 27.9999 16.2653 27.9999 16.0001C27.9999 15.7348 27.8945 15.4805 27.707 15.293C27.5194 15.1054 27.2651 15.0001 26.9999 15.0001Z" fill="white"/>
<path d="M4.99988 9.00006H26.9999C27.2651 9.00006 27.5194 8.8947 27.707 8.70717C27.8945 8.51963 27.9999 8.26528 27.9999 8.00006C27.9999 7.73484 27.8945 7.48049 27.707 7.29295C27.5194 7.10542 27.2651 7.00006 26.9999 7.00006H4.99988C4.73466 7.00006 4.48031 7.10542 4.29277 7.29295C4.10523 7.48049 3.99988 7.73484 3.99988 8.00006C3.99988 8.26528 4.10523 8.51963 4.29277 8.70717C4.48031 8.8947 4.73466 9.00006 4.99988 9.00006Z" fill="white"/>
<path d="M26.9999 23.0001H4.99988C4.73466 23.0001 4.48031 23.1054 4.29277 23.293C4.10523 23.4805 3.99988 23.7348 3.99988 24.0001C3.99988 24.2653 4.10523 24.5196 4.29277 24.7072C4.48031 24.8947 4.73466 25.0001 4.99988 25.0001H26.9999C27.2651 25.0001 27.5194 24.8947 27.707 24.7072C27.8945 24.5196 27.9999 24.2653 27.9999 24.0001C27.9999 23.7348 27.8945 23.4805 27.707 23.293C27.5194 23.1054 27.2651 23.0001 26.9999 23.0001Z" fill="white"/>
</svg>