<svg xmlns="http://www.w3.org/2000/svg" width="20" height="20" viewBox="0 0 32 32" fill="none">
    <path d="M27.7072 4.29291C27.5196 4.10538 27.2652 4.00003 27 4H26.9968L19.022 4.02515C18.8752 4.02561 18.7303 4.05838 18.5976 4.12114C18.4649 4.18389 18.3476 4.27509 18.2541 4.38825L9.45462 15.0403L8.41418 13.9999C8.03874 13.6255 7.53014 13.4152 6.99991 13.4152C6.46968 13.4153 5.9611 13.6256 5.58569 14L4.00012 15.5857C3.81437 15.7714 3.66702 15.9919 3.56648 16.2345C3.46595 16.4772 3.4142 16.7373 3.41419 16.9999C3.41417 17.2626 3.4659 17.5227 3.56642 17.7653C3.66693 18.008 3.81426 18.2285 4 18.4142L6.61084 21.0251L2.86816 24.7678C2.49367 25.1432 2.28336 25.6518 2.28339 26.182C2.28341 26.7123 2.49376 27.2208 2.86829 27.5962L4.40381 29.1317C4.58953 29.3174 4.81001 29.4648 5.05267 29.5653C5.29533 29.6658 5.55541 29.7175 5.81806 29.7175C6.08071 29.7175 6.34079 29.6658 6.58344 29.5653C6.8261 29.4648 7.04658 29.3174 7.2323 29.1317L10.9749 25.389L13.5858 28.0001C13.9613 28.3745 14.4699 28.5847 15.0001 28.5847C15.5303 28.5847 16.0389 28.3744 16.4143 28L17.9999 26.4143C18.1856 26.2286 18.333 26.0081 18.4335 25.7655C18.534 25.5228 18.5858 25.2627 18.5858 25.0001C18.5858 24.7374 18.5341 24.4773 18.4336 24.2347C18.3331 23.992 18.1857 23.7715 18 23.5858L16.9596 22.5454L27.6117 13.7458C27.7249 13.6524 27.8161 13.5351 27.8788 13.4024C27.9416 13.2697 27.9744 13.1248 27.9749 12.978L28 5.00317C28.0004 4.87132 27.9748 4.74069 27.9245 4.6188C27.8742 4.4969 27.8004 4.38615 27.7072 4.29291ZM25.9763 12.5027L15.539 21.1248L13.9142 19.5L20.7072 12.7072C20.8947 12.5196 21.0001 12.2652 21.0001 12C21.0001 11.7348 20.8947 11.4804 20.7072 11.2928C20.5196 11.1053 20.2652 10.9999 20 10.9999C19.7348 10.9999 19.4804 11.1053 19.2929 11.2928L12.5 18.0858L10.8752 16.4609L19.4973 6.02362L25.9968 6.00318L25.9763 12.5027Z" fill="white"/>
</svg>