<svg xmlns="http://www.w3.org/2000/svg" width="20" height="20" viewBox="0 0 32 32" fill="none">
    <path d="M21 6H10C9.7348 6 9.48045 6.10536 9.29291 6.29289C9.10537 6.48043 9.00002 6.73478 9.00002 7C9.00002 7.26522 9.10537 7.51957 9.29291 7.70711C9.48045 7.89464 9.7348 8 10 8H21C22.5913 8 24.1174 8.63214 25.2427 9.75736C26.3679 10.8826 27 12.4087 27 14C27 15.5913 26.3679 17.1174 25.2427 18.2426C24.1174 19.3679 22.5913 20 21 20H6.4142L10.7072 15.7071C10.8947 15.5195 11.0001 15.2652 11 15C11 14.7347 10.8947 14.4804 10.7071 14.2928C10.5196 14.1053 10.2652 14 9.99997 14C9.73475 14 9.48039 14.1054 9.29286 14.2929L3.29286 20.2929C3.28987 20.2959 3.28737 20.2993 3.28441 20.3022C3.26445 20.3228 3.24504 20.3437 3.22688 20.3659C3.21635 20.3787 3.20717 20.3922 3.19737 20.4054C3.18773 20.4183 3.17769 20.431 3.16869 20.4444C3.15844 20.4597 3.14952 20.4756 3.14021 20.4913C3.13289 20.5036 3.12517 20.5156 3.11839 20.5282C3.10988 20.5441 3.10268 20.5604 3.09508 20.5765C3.08879 20.59 3.08205 20.6031 3.07634 20.6169C3.06984 20.6326 3.06459 20.6486 3.05891 20.6645C3.0536 20.6794 3.04787 20.6941 3.04326 20.7093C3.03841 20.7253 3.03481 20.7417 3.03078 20.7579C3.02693 20.7733 3.02257 20.7886 3.01946 20.8043C3.01571 20.8231 3.01338 20.8422 3.01076 20.8613C3.0089 20.8746 3.00633 20.8876 3.00502 20.901C2.99849 20.9668 2.99849 21.0332 3.00502 21.099C3.00633 21.1124 3.0089 21.1254 3.01076 21.1387C3.01338 21.1578 3.0157 21.1769 3.01946 21.1957C3.02257 21.2114 3.02693 21.2267 3.03078 21.2421C3.03481 21.2583 3.0384 21.2747 3.04326 21.2907C3.04787 21.3059 3.0536 21.3206 3.05891 21.3354C3.06459 21.3514 3.06984 21.3674 3.07634 21.3831C3.08205 21.3969 3.08879 21.41 3.09508 21.4235C3.10268 21.4396 3.10988 21.4559 3.11839 21.4718C3.12517 21.4844 3.13289 21.4964 3.14021 21.5087C3.14952 21.5244 3.15843 21.5403 3.16869 21.5556C3.17769 21.569 3.18773 21.5817 3.19737 21.5946C3.20717 21.6078 3.21635 21.6213 3.22688 21.6341C3.24471 21.6558 3.26378 21.6764 3.28334 21.6965C3.28667 21.6999 3.28947 21.7037 3.29286 21.7071L9.29286 27.7071C9.38572 27.8 9.49596 27.8736 9.61728 27.9239C9.73861 27.9741 9.86865 28 9.99997 28C10.1313 28 10.2613 27.9742 10.3827 27.9239C10.504 27.8737 10.6142 27.8 10.7071 27.7072C10.8 27.6143 10.8736 27.5041 10.9239 27.3827C10.9742 27.2614 11 27.1314 11 27C11 26.8687 10.9742 26.7387 10.9239 26.6173C10.8737 26.496 10.8 26.3858 10.7072 26.2929L6.4142 22H21C23.1217 22 25.1566 21.1571 26.6569 19.6569C28.1572 18.1566 29 16.1217 29 14C29 11.8783 28.1572 9.84344 26.6569 8.34315C25.1566 6.84285 23.1217 6 21 6Z" fill="white"/>
</svg>