<svg xmlns="http://www.w3.org/2000/svg" width="32" height="32" viewBox="0 0 32 32" fill="none">
<path d="M25.7071 7.7071L7.70709 25.7071C7.51951 25.8944 7.26523 25.9996 7.00012 25.9995C6.73502 25.9995 6.4808 25.8941 6.29334 25.7067C6.10589 25.5192 6.00054 25.265 6.00046 24.9999C6.00037 24.7348 6.10556 24.4805 6.2929 24.2929L24.2929 6.29291C24.4805 6.10558 24.7348 6.00039 24.9999 6.00047C25.265 6.00055 25.5192 6.1059 25.7066 6.29336C25.8941 6.48081 25.9994 6.73503 25.9995 7.00014C25.9996 7.26524 25.8944 7.51952 25.7071 7.7071ZM6.31805 12.682C5.58007 11.9457 5.1203 10.9762 5.0171 9.93884C4.9139 8.90148 5.17366 7.86043 5.7521 6.99315C6.33054 6.12587 7.19186 5.48604 8.18924 5.18273C9.18663 4.87941 10.2583 4.93138 11.2217 5.32978C12.185 5.72819 12.9804 6.44836 13.4722 7.36754C13.964 8.28672 14.1218 9.34801 13.9187 10.3705C13.7156 11.393 13.1642 12.3135 12.3585 12.9749C11.5527 13.6364 10.5425 13.9979 9.49999 13.9979C8.90896 13.9998 8.32341 13.8845 7.77724 13.6586C7.23106 13.4327 6.7351 13.1008 6.31805 12.682ZM6.99999 9.50001C6.99999 9.91113 7.10138 10.3159 7.29519 10.6785C7.48899 11.0411 7.76922 11.3503 8.11106 11.5787C8.4529 11.8071 8.8458 11.9477 9.25495 11.988C9.6641 12.0283 10.0769 11.967 10.4567 11.8097C10.8365 11.6524 11.1717 11.4038 11.4325 11.086C11.6933 10.7682 11.8718 10.391 11.952 9.98774C12.0322 9.58451 12.0117 9.16772 11.8923 8.7743C11.773 8.38087 11.5585 8.02296 11.2678 7.73224V7.73221C10.9181 7.38258 10.4727 7.14448 9.98771 7.04802C9.50276 6.95156 9.00009 7.00107 8.54327 7.19029C8.08646 7.37952 7.69601 7.69995 7.42131 8.11107C7.14661 8.5222 6.99999 9.00555 6.99999 9.50001ZM27 22.5C27 23.5411 26.639 24.55 25.9786 25.3548C25.3181 26.1596 24.399 26.7105 23.3779 26.9136C22.3568 27.1167 21.2969 26.9595 20.3787 26.4687C19.4606 25.978 18.7409 25.184 18.3425 24.2222C17.9441 23.2603 17.8915 22.1901 18.1937 21.1938C18.4959 20.1975 19.1342 19.3369 19.9999 18.7584C20.8655 18.18 21.9049 17.9197 22.941 18.0217C23.9771 18.1237 24.9458 18.5819 25.6819 19.318C26.1011 19.7349 26.4335 20.2308 26.6597 20.777C26.886 21.3232 27.0016 21.9088 27 22.5ZM25 22.5C25 21.9216 24.7995 21.3611 24.4325 20.914C24.0656 20.4669 23.555 20.1608 22.9877 20.048C22.4204 19.9352 21.8316 20.0225 21.3215 20.2952C20.8114 20.5678 20.4116 21.0089 20.1903 21.5433C19.9689 22.0776 19.9397 22.6722 20.1076 23.2257C20.2755 23.7792 20.6301 24.2573 21.111 24.5787C21.592 24.9 22.1694 25.0447 22.745 24.988C23.3206 24.9313 23.8588 24.6768 24.2678 24.2678C24.5006 24.0362 24.6853 23.7607 24.811 23.4572C24.9367 23.1538 25.0009 22.8284 25 22.5Z" fill="black"/>
</svg>